<svg id="그룹_25797" data-name="그룹 25797" xmlns="http://www.w3.org/2000/svg" xmlns:xlink="http://www.w3.org/1999/xlink" width="40.7" height="34.741" viewBox="0 0 40.7 34.741">
  <defs>
    <clipPath id="clip-path">
      <rect id="사각형_10098" data-name="사각형 10098" width="40.7" height="34.741" fill="none"/>
    </clipPath>
  </defs>
  <g id="그룹_25796" data-name="그룹 25796" clip-path="url(#clip-path)">
    <path id="패스_20456" data-name="패스 20456" d="M34.05,132.76l-13.509-7.8a2.069,2.069,0,0,0-1.869-.005L.382,135.514c-.514.3-.509.781.009,1.08l13.509,7.8a2.07,2.07,0,0,0,1.871.006l5.889-3.4,9.191-2.182-2.681-1.577,5.89-3.4c.514-.3.509-.78-.011-1.081" transform="translate(0 -112.118)" fill="#4956be"/>
    <path id="패스_20457" data-name="패스 20457" d="M178.717,58.43c0,.01.008.027.012.033l.01.007a.5.5,0,0,0,.2-.074l3.291-1.891s3.321-1.906,3.323-1.91a.535.535,0,0,1,.8.456l.017,2.157,6.38-6.719a.539.539,0,0,1,.121-.095l6.616-3.8a1.792,1.792,0,0,0,.774-1.356V27.8a.354.354,0,0,0-.051-.226c-.273-.009-20.5,11.807-20.739,11.876a1.714,1.714,0,0,0-.638.774,1.474,1.474,0,0,0-.136.576V58.242a.5.5,0,0,0,.029.188m2.5-15.586L197.2,33.659a.531.531,0,0,1,.529.921l-15.984,9.185a.531.531,0,0,1-.529-.921m0,4.12L197.2,37.779a.531.531,0,0,1,.529.921l-15.984,9.185a.531.531,0,0,1-.529-.921m0,4.334L197.2,42.113a.531.531,0,0,1,.529.921l-15.984,9.185a.531.531,0,0,1-.529-.921" transform="translate(-160.615 -24.789)" fill="#fff"/>
    <path id="패스_20458" data-name="패스 20458" d="M227.7,309.222l1.658.777-.013-1.722Z" transform="translate(-204.666 -277.096)" fill="#3ea5e8"/>
    <path id="패스_20459" data-name="패스 20459" d="M144.311,25.965a2.816,2.816,0,0,1,1.306-2.271l19.963-11.473-2.866-1.152L142.4,22.745a1.76,1.76,0,0,0-.774,1.346V41.241l2.687,1.69Z" transform="translate(-127.3 -9.949)" fill="#ffd91c"/>
    <path id="패스_20460" data-name="패스 20460" d="M131.374,32.034c.026.016,3.989,2.511,4.012,2.523a1.218,1.218,0,0,0,1.325-.027l3.059-1.758,3.095,1.449a.553.553,0,0,0,.355.032.591.591,0,0,0,.256-.147l7.232-7.617,6.552-3.765a2.829,2.829,0,0,0,1.3-2.275V3.016A1.261,1.261,0,0,0,158,1.883a.976.976,0,0,0-.235-.1L153.435.038a.533.533,0,0,0-.463.032L132.431,11.875a2.837,2.837,0,0,0-1.306,2.271V31.584a.532.532,0,0,0,.248.45m.814-17.892a1.76,1.76,0,0,1,.774-1.346L153.278,1.12l2.866,1.152L136.18,13.745a2.816,2.816,0,0,0-1.306,2.271V32.981l-2.687-1.69ZM142.552,32.9l-1.658-.777,1.645-.945Zm7.438-7.2L143.61,32.42l-.017-2.157a.535.535,0,0,0-.8-.456s-3.32,1.905-3.323,1.91l-3.291,1.891a.506.506,0,0,1-.2.074l-.01-.007a.532.532,0,0,1-.04-.22V16.015a1.473,1.473,0,0,1,.136-.576,1.715,1.715,0,0,1,.638-.774l20.535-11.8a.579.579,0,0,1,.119-.05l.047-.013c.023-.005.04-.008.038-.011.022.021.048.08.051.226V20.449a1.792,1.792,0,0,1-.774,1.356l-6.616,3.8a.54.54,0,0,0-.121.095" transform="translate(-117.863 0)" fill="#0b72b5"/>
    <path id="패스_20461" data-name="패스 20461" d="M217.325,87.024l-15.984,9.185a.531.531,0,0,0,.529.921l15.984-9.185a.531.531,0,0,0-.529-.921" transform="translate(-180.742 -78.154)" fill="#0b72b5"/>
    <path id="패스_20462" data-name="패스 20462" d="M217.294,127.757l-15.984,9.185a.531.531,0,0,0,.529.921l15.984-9.185a.531.531,0,0,0-.529-.921" transform="translate(-180.712 -114.767)" fill="#0b72b5"/>
    <path id="패스_20463" data-name="패스 20463" d="M217.325,170.609l-15.984,9.185a.531.531,0,0,0,.529.921l15.984-9.185a.531.531,0,0,0-.529-.921" transform="translate(-180.742 -153.284)" fill="#0b72b5"/>
  </g>
</svg>
